<svg width="1280" height="1280" viewBox="0 0 1280 1280" fill="none" xmlns="http://www.w3.org/2000/svg">
<path d="M425.856 357.464C426.816 357.374 427.766 357.274 428.756 357.184C429.796 357.084 430.846 356.984 431.916 356.884C433.036 356.774 434.156 356.674 435.306 356.564C476.296 352.754 517.326 350.264 558.466 348.784C561.056 348.684 563.646 348.594 566.226 348.494C719.136 342.904 719.136 342.904 779.886 398.174C791.186 408.704 801.476 420.074 811.496 431.814C812.256 432.694 813.016 433.574 813.786 434.484C833.206 457.184 850.836 480.884 866.996 506.004C867.656 506.994 868.316 507.984 868.996 509.004C869.186 512.084 869.256 515.084 869.236 518.164C869.246 519.594 869.246 519.594 869.246 521.044C869.246 524.244 869.236 527.444 869.226 530.634C869.226 532.924 869.226 535.214 869.226 537.494C869.226 543.714 869.216 549.934 869.206 556.154C869.186 562.644 869.186 569.144 869.186 575.634C869.186 586.544 869.166 597.444 869.156 608.344C869.136 619.584 869.116 630.814 869.106 642.044C869.106 643.084 869.106 643.084 869.106 644.144C869.106 647.614 869.106 651.084 869.096 654.564C869.076 683.374 869.046 712.184 868.996 741.004C860.346 739.934 860.346 739.934 856.546 739.244C820.056 732.994 784.426 740.484 753.996 762.004C750.586 764.574 747.276 767.254 743.996 770.004C743.316 770.554 742.626 771.104 741.916 771.674C718.106 791.384 703.056 825.014 699.746 855.294C696.326 892.614 708.426 926.554 730.996 956.004C731.656 956.664 732.316 957.324 732.996 958.004C681.186 958.004 629.376 958.004 575.996 958.004C574.496 954.994 574.906 952.214 574.936 948.874C574.946 947.594 574.956 946.314 574.966 944.994C574.986 943.514 574.986 943.514 574.996 942.004C570.816 942.004 569.316 942.604 565.676 944.454C564.646 944.964 563.616 945.484 562.556 946.024C561.486 946.574 560.416 947.124 559.316 947.684C558.266 948.214 557.206 948.744 556.126 949.294C550.506 952.054 550.506 952.054 545.126 955.234C538.836 959.224 533.756 959.684 526.416 959.544C525.286 959.534 524.166 959.534 523.006 959.534C519.306 959.514 515.616 959.464 511.916 959.414C509.326 959.384 506.746 959.374 504.166 959.354C498.756 959.304 493.346 959.244 487.936 959.174C481.716 959.084 475.486 959.034 469.256 958.994C463.236 958.954 457.216 958.894 451.196 958.824C448.656 958.804 446.106 958.774 443.556 958.764C439.986 958.734 436.416 958.684 432.846 958.624C431.806 958.624 430.766 958.624 429.696 958.614C420.566 958.424 411.866 956.184 404.626 950.374C403.856 949.784 403.086 949.194 402.286 948.584C394.326 939.594 394.306 930.184 394.436 918.804C394.436 917.074 394.436 915.354 394.426 913.624C394.426 908.964 394.456 904.304 394.496 899.644C394.526 894.774 394.526 889.894 394.536 885.014C394.546 875.794 394.586 866.564 394.636 857.334C394.696 846.834 394.726 836.324 394.746 825.814C394.796 804.214 394.886 782.604 394.996 761.004C395.656 760.674 396.316 760.344 396.996 760.004C397.496 761.114 397.496 761.114 397.996 762.244C401.266 769.484 404.806 776.514 408.556 783.514C410.986 788.064 413.346 792.634 415.626 797.254C420.946 807.994 426.506 818.624 432.026 829.264C433.996 833.054 435.956 836.844 437.916 840.644C438.866 842.474 439.806 844.294 440.756 846.124C441.916 848.384 443.086 850.644 444.256 852.904C446.686 857.604 449.146 862.284 451.706 866.914C457.266 877.044 462.386 887.414 467.626 897.704C469.086 900.574 470.546 903.434 472.006 906.294C472.446 907.164 472.896 908.034 473.346 908.934C475.256 912.674 477.186 916.364 479.316 919.984C480.996 923.004 480.996 923.004 480.996 925.004C482.316 925.334 483.636 925.664 484.996 926.004C491.836 919.124 495.706 912.294 499.006 903.234C499.996 901.004 499.996 901.004 501.996 900.004C503.746 899.804 505.506 899.624 507.256 899.454C520.666 898.154 532.386 893.884 541.276 883.294C542.026 882.374 542.786 881.454 543.566 880.504C547.336 876.134 547.336 876.134 550.206 875.554C552.316 875.814 552.316 875.814 555.996 877.004C558.926 877.854 561.496 878.114 564.546 878.094C565.396 878.094 566.236 878.094 567.106 878.084C567.976 878.084 568.856 878.074 569.746 878.064C570.636 878.054 571.526 878.054 572.446 878.054C574.626 878.034 576.816 878.024 578.996 878.004C573.696 867.334 568.316 856.704 562.876 846.114C561.666 843.774 560.466 841.434 559.276 839.104C558.496 837.594 557.726 836.084 556.946 834.584C556.596 833.894 556.246 833.204 555.876 832.494C554.426 829.664 552.946 826.904 551.256 824.214C549.996 822.004 549.996 822.004 549.996 819.004C551.896 818.994 551.896 818.994 553.836 818.994C565.776 818.984 577.706 818.934 589.636 818.864C595.776 818.834 601.906 818.804 608.046 818.804C613.966 818.804 619.886 818.774 625.806 818.724C628.066 818.714 630.326 818.714 632.586 818.714C635.746 818.724 638.906 818.694 642.066 818.664C643.006 818.664 643.936 818.674 644.906 818.684C649.436 818.604 651.376 818.484 655.056 815.614C657.116 812.844 657.996 811.444 657.996 808.004C656.626 805.324 656.626 805.324 654.996 803.004C654.996 802.344 654.996 801.684 654.996 801.004C649.446 799.834 644.026 799.854 638.376 799.854C637.316 799.854 636.266 799.854 635.176 799.844C632.886 799.844 630.596 799.834 628.306 799.834C624.676 799.824 621.056 799.804 617.436 799.794C607.136 799.734 596.836 799.694 586.546 799.674C580.236 799.664 573.936 799.634 567.636 799.594C565.236 799.584 562.826 799.574 560.426 799.574C557.076 799.584 553.716 799.554 550.366 799.534C549.366 799.534 548.376 799.544 547.346 799.554C540.646 799.464 540.646 799.464 537.496 797.224C536.086 795.134 534.786 793.104 533.636 790.864C533.216 790.054 532.796 789.254 532.366 788.424C531.936 787.564 531.496 786.704 531.046 785.814C530.596 784.924 530.136 784.034 529.666 783.114C528.696 781.224 527.736 779.344 526.786 777.454C525.316 774.574 523.836 771.694 522.356 768.814C521.426 766.984 520.486 765.154 519.546 763.314C519.106 762.454 518.666 761.604 518.216 760.714C517.806 759.904 517.396 759.104 516.976 758.264C516.616 757.564 516.256 756.854 515.886 756.134C514.906 753.774 514.466 751.504 513.996 749.004C514.706 748.994 515.406 748.994 516.126 748.994C533.216 748.914 550.296 748.814 567.376 748.714C575.646 748.664 583.906 748.614 592.166 748.574C599.366 748.544 606.566 748.504 613.766 748.454C617.576 748.434 621.396 748.414 625.206 748.394C628.796 748.384 632.386 748.364 635.966 748.334C637.916 748.324 639.866 748.314 641.806 748.314C642.966 748.304 644.126 748.294 645.316 748.274C646.326 748.274 647.336 748.264 648.366 748.264C651.116 747.994 652.706 747.514 654.996 746.004C657.356 742.464 657.486 741.164 656.996 737.004C654.946 732.814 654.946 732.814 651.236 730.334C648.456 729.924 645.826 729.914 643.016 729.944C641.796 729.964 640.566 729.974 639.306 729.984C637.946 730.004 636.596 730.024 635.236 730.044C633.806 730.064 632.376 730.074 630.956 730.094C627.876 730.124 624.796 730.164 621.726 730.204C616.856 730.254 611.986 730.294 607.126 730.334C606.306 730.334 605.476 730.344 604.636 730.344C601.246 730.374 597.856 730.394 594.466 730.414C584.846 730.484 575.226 730.564 565.616 730.704C557.966 730.804 550.326 730.874 542.676 730.904C538.636 730.914 534.596 730.954 530.546 731.024C526.746 731.104 522.946 731.124 519.136 731.114C517.746 731.114 516.356 731.144 514.956 731.184C510.786 731.294 506.996 731.254 502.996 730.004C500.056 727.014 498.576 723.844 496.996 720.004C496.206 718.504 495.396 717.014 494.576 715.534C493.796 714.044 493.026 712.564 492.256 711.074C491.846 710.274 491.436 709.474 491.006 708.654C490.146 706.994 489.286 705.324 488.426 703.654C487.116 701.104 485.786 698.564 484.466 696.014C483.626 694.384 482.786 692.764 481.946 691.134C481.346 689.994 481.346 689.994 480.746 688.834C480.386 688.134 480.026 687.424 479.646 686.694C479.166 685.764 479.166 685.764 478.686 684.814C477.996 683.004 477.996 683.004 477.996 679.004C478.876 678.994 478.876 678.994 479.776 678.994C514.406 678.914 549.026 678.824 583.656 678.724C587.816 678.704 591.976 678.694 596.126 678.684C596.956 678.684 597.786 678.674 598.636 678.674C612.036 678.634 625.446 678.604 638.856 678.574C652.606 678.544 666.356 678.504 680.106 678.454C688.586 678.434 697.076 678.404 705.566 678.394C711.386 678.384 717.196 678.364 723.016 678.344C726.376 678.324 729.736 678.314 733.086 678.314C736.726 678.314 740.366 678.294 744.006 678.274C745.066 678.284 746.136 678.284 747.236 678.284C748.206 678.274 749.176 678.274 750.186 678.264C751.446 678.254 751.446 678.254 752.726 678.254C755.246 677.974 756.846 677.324 758.996 676.004C761.056 673.014 761.506 670.574 760.996 667.004C758.916 662.794 758.916 662.794 755.166 660.334C752.766 659.964 750.486 659.874 748.046 659.864C747.046 659.864 746.046 659.854 745.016 659.854C743.366 659.854 743.366 659.854 741.686 659.844C739.926 659.844 739.926 659.844 738.136 659.834C734.896 659.824 731.646 659.824 728.396 659.814C724.896 659.804 721.396 659.794 717.896 659.784C711.836 659.764 705.766 659.754 699.706 659.744C690.926 659.724 682.156 659.694 673.386 659.674C659.146 659.624 644.906 659.584 630.666 659.554C629.396 659.554 629.396 659.554 628.086 659.544C621.176 659.524 614.256 659.514 607.336 659.494C601.296 659.474 595.246 659.464 589.196 659.444C587.926 659.444 587.926 659.444 586.616 659.444C572.436 659.404 558.246 659.364 544.066 659.324C535.306 659.294 526.556 659.274 517.806 659.254C511.806 659.244 505.816 659.224 499.816 659.204C496.356 659.194 492.896 659.184 489.436 659.184C485.686 659.174 481.936 659.164 478.196 659.154C476.536 659.154 476.536 659.154 474.856 659.154C473.856 659.144 472.856 659.144 471.826 659.134C470.956 659.134 470.096 659.134 469.206 659.134C466.996 659.004 466.996 659.004 463.996 658.004C461.586 658.944 461.586 658.944 458.956 660.484C457.376 661.344 457.376 661.344 455.766 662.234C455.196 662.544 454.626 662.864 454.036 663.194C450.916 664.934 447.766 666.644 444.626 668.344C443.946 668.714 443.266 669.084 442.556 669.474C433.886 674.174 425.096 678.644 416.316 683.124C412.986 684.824 409.666 686.514 406.346 688.214C405.546 688.624 404.746 689.034 403.916 689.454C398.966 691.984 394.026 694.544 389.096 697.134C387.936 697.734 386.766 698.344 385.576 698.974C383.466 700.084 381.356 701.194 379.256 702.304C378.346 702.784 377.426 703.264 376.486 703.764C375.326 704.384 375.326 704.384 374.126 705.014C372.086 705.954 370.196 706.544 367.996 707.004C361.866 696.554 356.356 685.894 351.036 675.024C350.066 673.054 349.096 671.094 348.126 669.124C347.806 668.484 347.486 667.834 347.156 667.174C344.026 660.904 340.586 654.814 337.066 648.764C336.646 648.044 336.236 647.314 335.806 646.574C335.246 645.604 335.246 645.604 334.676 644.624C334.456 644.094 334.226 643.554 333.996 643.004C334.326 642.344 334.656 641.684 334.996 641.004C336.666 640.654 338.336 640.324 339.996 640.004C342.056 639.014 342.056 639.014 344.016 637.734C344.786 637.264 345.546 636.794 346.326 636.304C347.146 635.794 347.966 635.284 348.816 634.754C415.326 594.004 415.326 594.004 430.996 594.004C419.896 570.004 419.896 570.004 398.446 555.984C395.996 555.004 395.996 555.004 394.996 554.004C394.896 551.794 394.856 549.584 394.856 547.374C394.846 546.674 394.846 545.974 394.846 545.244C394.826 542.884 394.826 540.514 394.826 538.144C394.816 536.454 394.806 534.764 394.806 533.084C394.786 528.474 394.776 523.864 394.766 519.264C394.766 516.384 394.756 513.504 394.746 510.624C394.726 501.624 394.716 492.624 394.706 483.614C394.696 473.224 394.676 462.834 394.636 452.444C394.606 444.414 394.586 436.384 394.586 428.354C394.576 423.554 394.576 418.754 394.546 413.964C394.526 409.444 394.516 404.924 394.526 400.404C394.526 398.754 394.526 397.104 394.506 395.444C394.416 383.634 395.636 374.764 403.936 365.794C410.316 360.254 417.636 358.264 425.856 357.464Z" fill="#EAEBED"/>
<path d="M420.719 335.739C422.629 335.729 422.629 335.729 424.569 335.729C428.089 335.719 431.599 335.719 435.119 335.719C438.909 335.729 442.709 335.719 446.509 335.709C453.939 335.699 461.369 335.699 468.799 335.699C474.849 335.699 480.889 335.699 486.929 335.689C487.799 335.689 488.659 335.689 489.539 335.689C491.289 335.689 493.039 335.689 494.789 335.689C511.189 335.679 527.589 335.679 543.989 335.689C558.979 335.689 573.969 335.679 588.949 335.659C604.359 335.639 619.759 335.629 635.159 335.639C643.809 335.639 652.449 335.639 661.089 335.619C668.449 335.609 675.809 335.609 683.169 335.619C686.919 335.629 690.669 335.629 694.419 335.619C698.489 335.599 702.569 335.609 706.649 335.629C708.399 335.619 708.399 335.619 710.189 335.599C721.909 335.679 733.709 337.339 742.999 344.999C745.269 347.509 747.319 350.109 749.379 352.789C756.239 361.469 764.749 369.279 773.179 376.399C776.199 379.059 778.969 381.959 781.789 384.819C783.759 386.759 785.769 388.579 787.879 390.379C791.249 393.259 794.389 396.339 797.499 399.499C801.189 403.239 804.979 406.779 808.969 410.189C812.319 413.169 815.409 416.399 818.559 419.589C821.269 422.269 824.109 424.749 826.999 427.219C829.259 429.229 831.379 431.349 833.499 433.499C836.209 436.249 838.939 438.869 841.879 441.379C845.249 444.259 848.389 447.339 851.499 450.499C854.569 453.619 857.669 456.659 860.999 459.499C864.849 462.779 868.379 466.349 871.929 469.949C875.169 473.219 878.539 476.269 882.039 479.259C885.089 481.969 887.919 484.899 890.769 487.819C892.809 489.809 894.909 491.589 897.129 493.379C904.119 499.389 909.439 507.949 910.179 517.269C910.249 519.929 910.259 522.589 910.239 525.259C910.239 526.789 910.239 526.789 910.249 528.339C910.249 531.749 910.239 535.159 910.229 538.559C910.229 541.009 910.229 543.449 910.229 545.889C910.229 551.149 910.219 556.409 910.209 561.669C910.199 569.269 910.189 576.869 910.189 584.479C910.179 596.809 910.169 609.149 910.149 621.489C910.129 633.469 910.119 645.449 910.109 657.429C910.109 658.539 910.109 658.539 910.109 659.669C910.109 663.369 910.099 667.079 910.099 670.789C910.079 701.529 910.049 732.259 909.999 762.999C910.919 763.439 910.919 763.439 911.859 763.889C933.629 775.189 948.749 804.489 956.909 826.499C959.099 833.529 960.629 840.759 961.999 847.999C962.179 848.939 962.359 849.879 962.539 850.849C964.869 866.709 964.309 885.529 959.999 900.999C959.769 901.809 959.549 902.619 959.319 903.459C950.199 935.109 930.569 963.819 901.999 980.999C901.089 981.559 901.089 981.559 900.159 982.139C886.369 990.639 871.919 995.949 855.999 998.999C855.119 999.169 854.229 999.339 853.319 999.519C849.539 1000.07 845.809 1000.2 841.989 1000.24C840.849 1000.25 840.849 1000.25 839.679 1000.27C808.099 1000.59 808.099 1000.59 793.999 995.999C793.339 995.799 792.679 995.589 791.999 995.379C780.399 991.729 766.499 986.409 757.199 978.459C749.899 972.409 741.779 973.199 732.819 973.319C731.089 973.319 729.349 973.319 727.619 973.319C722.929 973.319 718.239 973.349 713.549 973.389C708.639 973.429 703.729 973.429 698.819 973.439C689.539 973.459 680.249 973.509 670.969 973.569C660.389 973.639 649.809 973.669 639.239 973.699C617.489 973.759 595.749 973.869 573.999 973.999C573.669 976.309 573.339 978.619 572.999 980.999C568.899 979.589 565.539 977.509 561.969 975.119C557.999 972.859 554.239 972.869 549.739 972.869C547.809 972.859 547.809 972.859 545.839 972.859C544.419 972.859 542.989 972.859 541.569 972.859C540.069 972.859 538.569 972.849 537.059 972.849C533.829 972.839 530.599 972.839 527.359 972.829C522.239 972.829 517.119 972.809 512.009 972.789C510.249 972.779 508.499 972.779 506.739 972.769C505.859 972.769 504.989 972.769 504.079 972.759C492.159 972.719 480.249 972.689 468.329 972.669C460.289 972.669 452.249 972.639 444.209 972.609C439.959 972.589 435.709 972.569 431.459 972.579C427.449 972.579 423.449 972.569 419.439 972.539C417.979 972.529 416.519 972.529 415.049 972.539C401.209 972.599 392.119 969.559 381.999 959.999C377.249 954.929 374.679 949.719 372.999 942.999C372.829 942.319 372.649 941.639 372.479 940.929C371.829 936.919 371.849 932.979 371.859 928.919C371.849 927.549 371.849 927.549 371.849 926.149C371.829 923.079 371.829 919.999 371.829 916.929C371.819 914.729 371.809 912.529 371.809 910.329C371.789 905.589 371.779 900.849 371.769 896.109C371.759 888.619 371.729 881.129 371.709 873.639C371.669 863.139 371.639 852.639 371.609 842.139C371.609 841.469 371.599 840.809 371.599 840.119C371.579 830.659 371.549 821.209 371.529 811.749C371.529 811.079 371.529 810.419 371.519 809.729C371.519 809.069 371.519 808.399 371.519 807.709C371.489 796.619 371.459 785.529 371.419 774.439C371.389 766.989 371.369 759.529 371.359 752.079C371.349 747.449 371.329 742.829 371.319 738.199C371.309 736.039 371.299 733.889 371.299 731.739C371.299 728.809 371.289 725.879 371.269 722.949C371.279 722.099 371.279 721.239 371.279 720.359C371.239 716.259 370.829 713.599 368.999 709.999C368.999 709.009 368.999 708.019 368.999 706.999C382.759 699.539 396.539 692.139 410.559 685.189C417.989 681.499 425.409 677.799 432.749 673.939C433.859 673.359 433.859 673.359 434.989 672.759C439.339 670.459 443.649 668.089 447.949 665.679C449.459 664.839 449.459 664.839 450.999 663.989C452.969 662.889 454.929 661.779 456.879 660.669C457.769 660.179 458.649 659.679 459.559 659.179C460.739 658.509 460.739 658.509 461.939 657.829C463.999 656.999 463.999 656.999 466.999 657.999C468.609 658.089 470.209 658.129 471.819 658.129C473.319 658.139 473.319 658.139 474.849 658.149C476.499 658.149 476.499 658.149 478.189 658.149C479.939 658.149 479.939 658.149 481.719 658.159C484.969 658.159 488.209 658.169 491.449 658.169C494.949 658.179 498.449 658.189 501.949 658.189C508.009 658.209 514.069 658.219 520.129 658.229C528.899 658.239 537.669 658.269 546.439 658.289C560.679 658.329 574.909 658.359 589.139 658.389C590.419 658.399 590.419 658.399 591.729 658.399C603.819 658.429 615.919 658.449 628.019 658.469C628.869 658.469 629.719 658.479 630.599 658.479C631.449 658.479 632.299 658.479 633.169 658.479C647.349 658.509 661.529 658.539 675.709 658.579C684.459 658.609 693.209 658.629 701.949 658.639C707.949 658.639 713.939 658.659 719.939 658.679C723.399 658.689 726.859 658.699 730.319 658.699C734.059 658.699 737.809 658.709 741.559 658.729C743.209 658.729 743.209 658.729 744.879 658.719C745.889 658.729 746.889 658.729 747.929 658.739C749.229 658.739 749.229 658.739 750.549 658.749C754.979 659.209 757.419 660.349 760.379 663.689C762.379 667.779 762.279 669.669 760.999 673.999C759.109 676.319 757.659 677.669 754.999 678.999C753.479 679.089 751.949 679.119 750.429 679.119C749.459 679.129 748.489 679.129 747.489 679.129C746.419 679.129 745.349 679.119 744.239 679.119C743.109 679.119 741.979 679.119 740.809 679.119C736.989 679.129 733.169 679.119 729.349 679.109C726.619 679.109 723.889 679.109 721.159 679.109C715.269 679.119 709.379 679.109 703.489 679.109C694.969 679.099 686.459 679.099 677.939 679.089C664.129 679.089 650.319 679.089 636.499 679.079C623.079 679.069 609.659 679.059 596.239 679.059C595.409 679.059 594.579 679.059 593.729 679.049C589.579 679.049 585.439 679.049 581.289 679.049C546.859 679.039 512.429 679.019 477.999 678.999C478.619 680.569 479.239 682.149 479.869 683.719C480.389 685.029 480.389 685.029 480.919 686.379C482.549 690.339 484.459 694.149 486.409 697.969C487.019 699.169 487.019 699.169 487.639 700.389C488.489 702.059 489.339 703.729 490.199 705.399C491.509 707.949 492.799 710.509 494.089 713.069C494.919 714.699 495.759 716.339 496.589 717.969C497.169 719.109 497.169 719.109 497.749 720.279C498.119 720.979 498.489 721.689 498.869 722.419C499.339 723.349 499.339 723.349 499.829 724.299C501.339 726.479 502.729 727.599 504.999 728.999C507.799 729.439 507.799 729.439 510.909 729.349C512.119 729.349 513.329 729.349 514.579 729.349C515.919 729.339 517.259 729.319 518.589 729.309C520.009 729.309 521.419 729.299 522.829 729.299C525.859 729.299 528.899 729.279 531.939 729.259C536.739 729.219 541.539 729.209 546.349 729.199C555.679 729.169 565.009 729.129 574.339 729.079C586.209 729.019 598.079 728.969 609.949 728.929C614.729 728.919 619.499 728.899 624.269 728.869C627.239 728.849 630.219 728.839 633.189 728.829C634.559 728.819 635.939 728.819 637.319 728.799C639.199 728.789 641.079 728.779 642.959 728.779C644.009 728.769 645.059 728.769 646.149 728.759C649.179 729.019 651.289 729.619 653.999 730.999C656.539 734.019 657.849 736.169 658.559 740.059C657.809 744.009 656.039 745.469 652.999 747.999C650.389 749.309 648.479 749.119 645.559 749.119C644.399 749.119 643.249 749.119 642.059 749.129C640.149 749.119 640.149 749.119 638.199 749.109C636.849 749.109 635.499 749.109 634.149 749.109C630.479 749.109 626.799 749.109 623.129 749.099C619.299 749.099 615.459 749.099 611.629 749.089C604.369 749.089 597.099 749.079 589.839 749.069C581.569 749.059 573.299 749.059 565.029 749.049C548.019 749.039 531.009 749.019 513.999 748.999C515.919 753.019 517.839 757.039 519.759 761.049C520.299 762.179 520.839 763.319 521.399 764.479C524.969 771.939 528.669 779.249 532.749 786.439C533.769 788.249 534.789 790.059 535.799 791.869C536.439 792.999 536.439 792.999 537.089 794.149C537.999 795.999 537.999 795.999 537.999 797.999C538.849 798.009 538.849 798.009 539.719 798.009C553.509 798.089 567.309 798.179 581.109 798.289C587.779 798.339 594.449 798.379 601.119 798.419C607.559 798.459 613.999 798.509 620.439 798.559C622.899 798.579 625.349 798.589 627.809 798.599C631.249 798.619 634.689 798.649 638.129 798.679C639.649 798.689 639.649 798.689 641.209 798.689C646.169 798.749 650.389 798.939 654.999 800.999C657.659 803.759 658.999 806.799 658.999 810.629C657.489 814.209 655.539 817.229 651.999 818.999C650.629 819.089 649.259 819.119 647.889 819.119C647.029 819.119 646.169 819.119 645.279 819.129C643.859 819.119 643.859 819.119 642.409 819.109C640.919 819.109 640.919 819.109 639.389 819.109C636.089 819.109 632.789 819.109 629.489 819.099C627.209 819.099 624.919 819.099 622.639 819.089C616.619 819.089 610.599 819.079 604.579 819.069C598.439 819.059 592.299 819.049 586.159 819.049C574.109 819.039 562.049 819.019 549.999 818.999C556.259 831.549 556.259 831.549 562.609 844.039C562.999 844.789 563.379 845.529 563.769 846.289C564.559 847.819 565.339 849.359 566.129 850.889C567.329 853.219 568.529 855.559 569.729 857.899C570.499 859.409 571.279 860.909 572.049 862.419C572.399 863.109 572.759 863.799 573.119 864.509C574.579 867.329 576.059 870.089 577.749 872.789C578.999 874.999 578.999 874.999 578.999 877.999C575.389 879.199 572.069 879.189 568.309 879.189C567.589 879.189 566.869 879.189 566.129 879.189C562.379 879.159 558.919 878.969 555.309 877.939C551.809 876.949 550.409 876.929 546.999 877.999C545.189 879.579 545.189 879.579 543.689 881.629C535.009 892.059 524.279 899.029 510.459 900.339C506.979 900.599 503.489 900.819 499.999 900.999C499.839 901.629 499.679 902.259 499.519 902.909C496.809 912.839 491.929 919.499 484.999 926.999C481.289 925.769 480.009 923.729 478.259 920.329C477.949 919.689 477.639 919.049 477.309 918.399C476.969 917.729 476.629 917.059 476.279 916.369C475.179 914.189 474.089 911.999 472.999 909.809C472.239 908.309 471.479 906.809 470.719 905.309C469.189 902.299 467.669 899.279 466.159 896.269C463.219 890.439 460.209 884.659 457.189 878.879C456.719 877.969 456.239 877.059 455.759 876.119C453.899 872.549 452.019 868.999 449.999 865.519C447.399 861.039 445.159 856.389 442.879 851.749C435.839 837.599 428.469 823.659 420.879 809.809C416.379 801.609 412.069 793.349 407.959 784.949C406.219 781.409 404.449 777.899 402.689 774.379C402.049 773.089 401.399 771.809 400.759 770.519C400.179 769.359 399.599 768.199 398.999 766.999C397.999 764.999 396.999 762.999 395.999 760.999C395.879 783.649 395.799 806.289 395.739 828.929C395.719 839.449 395.679 849.959 395.619 860.479C395.569 869.649 395.539 878.809 395.529 887.979C395.519 892.829 395.509 897.679 395.469 902.529C395.439 907.109 395.429 911.679 395.439 916.249C395.429 917.919 395.419 919.599 395.399 921.269C395.299 930.379 395.439 938.289 400.999 945.999C403.449 948.659 403.449 948.659 406.249 950.439C407.559 951.359 407.559 951.359 408.889 952.309C416.489 956.449 423.669 957.489 432.239 957.699C433.329 957.739 434.419 957.779 435.539 957.819C439.129 957.929 442.719 958.029 446.309 958.109C447.549 958.139 448.799 958.169 450.069 958.199C455.309 958.319 460.549 958.429 465.789 958.519C472.539 958.629 479.279 958.779 486.019 959.019C529.739 960.559 529.739 960.559 568.579 942.659C570.999 940.999 570.999 940.999 573.999 939.999C575.999 941.999 575.999 941.999 575.999 957.999C627.149 957.669 678.299 957.339 730.999 956.999C726.709 951.059 722.419 945.119 717.999 938.999C699.449 907.359 693.529 871.869 702.269 836.129C709.719 807.829 726.709 781.659 749.999 763.999C750.779 763.409 751.559 762.809 752.359 762.199C765.509 752.599 779.569 746.049 794.999 740.999C796.029 740.659 797.059 740.319 798.119 739.969C821.269 733.059 845.909 735.189 868.999 740.999C869.079 711.619 869.109 682.229 869.079 652.849C869.069 649.369 869.069 645.899 869.069 642.429C869.069 641.739 869.069 641.049 869.069 640.329C869.059 629.149 869.079 617.969 869.109 606.789C869.149 595.309 869.149 583.839 869.119 572.359C869.099 565.909 869.099 559.469 869.139 553.019C869.169 546.949 869.159 540.889 869.129 534.819C869.119 532.589 869.129 530.369 869.149 528.139C869.789 514.829 869.789 514.829 863.999 503.469C863.189 502.759 862.369 502.039 861.529 501.299C858.639 498.669 856.659 495.769 854.609 492.479C853.839 491.279 853.079 490.079 852.309 488.869C851.909 488.249 851.519 487.619 851.109 486.979C837.909 466.299 822.929 447.059 807.059 428.379C806.369 427.549 805.669 426.729 804.949 425.879C767.909 382.269 728.399 356.119 671.239 351.179C635.719 348.309 600.039 348.769 564.459 349.979C561.869 350.059 559.279 350.149 556.689 350.229C520.829 351.419 485.019 353.299 449.259 356.269C447.299 356.439 445.329 356.599 443.369 356.759C439.769 357.059 436.169 357.369 432.569 357.699C431.539 357.779 430.499 357.869 429.439 357.959C418.509 358.999 408.979 361.249 401.469 369.739C397.069 375.529 395.749 381.009 395.759 388.289C395.759 389.359 395.759 389.359 395.759 390.449C395.749 392.819 395.759 395.189 395.769 397.559C395.769 399.269 395.769 400.969 395.769 402.679C395.769 407.299 395.779 411.919 395.799 416.539C395.809 421.379 395.809 426.209 395.809 431.039C395.819 440.189 395.839 449.339 395.859 458.479C395.879 468.899 395.889 479.319 395.899 489.729C395.919 511.149 395.959 532.579 395.999 553.999C396.819 554.329 397.629 554.659 398.469 554.999C400.089 555.659 400.089 555.659 401.729 556.339C402.789 556.769 403.859 557.199 404.949 557.649C413.959 561.639 418.259 567.549 422.999 575.999C423.359 576.629 423.709 577.269 424.079 577.919C425.209 579.939 426.329 581.969 427.439 583.999C427.789 584.649 428.149 585.289 428.509 585.959C430.049 588.849 430.999 590.679 430.999 593.999C429.689 594.589 429.689 594.589 428.349 595.189C386.549 613.889 386.549 613.889 346.849 636.629C345.949 637.209 345.949 637.209 345.029 637.799C343.519 638.779 342.019 639.789 340.519 640.809C337.409 642.279 336.229 642.069 332.999 640.999C331.549 639.239 331.549 639.239 330.399 636.959C329.969 636.129 329.539 635.299 329.099 634.449C328.679 633.579 328.249 632.709 327.809 631.809C327.379 630.959 326.939 630.109 326.489 629.229C321.399 619.199 318.889 609.939 321.879 598.699C328.679 581.059 344.209 575.439 360.009 567.229C361.739 566.329 361.739 566.329 363.509 565.409C366.339 563.939 369.169 562.469 371.999 560.999C371.999 560.039 371.999 559.069 371.989 558.079C371.929 534.619 371.879 511.159 371.849 487.689C371.829 476.349 371.809 464.999 371.769 453.659C371.739 443.759 371.729 433.869 371.719 423.979C371.709 418.739 371.709 413.509 371.679 408.269C371.659 403.339 371.659 398.399 371.659 393.469C371.659 391.659 371.649 389.859 371.639 388.059C371.549 372.469 372.869 359.359 383.629 347.159C393.839 337.529 407.329 335.699 420.719 335.739Z" fill="#5DB28B"/>
<path d="M467 658C468.61 658.09 470.21 658.13 471.82 658.13C473.32 658.14 473.32 658.14 474.85 658.15C476.5 658.15 476.5 658.15 478.18 658.14C479.94 658.15 479.94 658.15 481.72 658.16C484.97 658.16 488.21 658.17 491.45 658.17C494.95 658.18 498.45 658.18 501.95 658.19C508.01 658.21 514.07 658.22 520.13 658.23C528.9 658.24 537.67 658.26 546.44 658.29C560.67 658.33 574.91 658.36 589.14 658.39C590.42 658.4 590.42 658.4 591.73 658.4C603.82 658.43 615.92 658.45 628.01 658.47C628.87 658.47 629.72 658.48 630.6 658.48C631.45 658.48 632.3 658.48 633.17 658.48C647.35 658.51 661.53 658.54 675.71 658.58C684.46 658.61 693.21 658.63 701.95 658.64C707.95 658.64 713.94 658.66 719.94 658.68C723.4 658.69 726.86 658.7 730.31 658.7C734.06 658.7 737.81 658.71 741.56 658.73C743.21 658.72 743.21 658.72 744.88 658.72C746.39 658.73 746.39 658.73 747.93 658.74C748.79 658.74 749.66 658.74 750.55 658.75C754.98 659.2 757.42 660.35 760.38 663.69C762.38 667.77 762.28 669.67 761 674C759.11 676.32 757.66 677.67 755 679C753.48 679.09 751.95 679.12 750.43 679.12C749.46 679.13 748.49 679.13 747.49 679.13C746.42 679.13 745.35 679.12 744.24 679.12C743.11 679.12 741.98 679.12 740.81 679.12C736.99 679.12 733.17 679.12 729.35 679.11C726.62 679.11 723.89 679.11 721.16 679.11C715.27 679.11 709.38 679.11 703.49 679.11C694.97 679.1 686.46 679.09 677.94 679.09C664.13 679.09 650.32 679.08 636.5 679.08C623.08 679.07 609.66 679.06 596.24 679.05C595.41 679.05 594.58 679.05 593.73 679.05C589.58 679.05 585.44 679.05 581.29 679.05C546.86 679.04 512.43 679.02 478 679C478.62 680.57 479.24 682.15 479.87 683.72C480.39 685.03 480.39 685.03 480.92 686.37C482.55 690.34 484.46 694.15 486.41 697.96C486.81 698.76 487.22 699.56 487.64 700.39C488.49 702.06 489.34 703.73 490.2 705.4C491.51 707.95 492.8 710.51 494.09 713.07C494.92 714.7 495.76 716.33 496.59 717.96C497.17 719.11 497.17 719.11 497.75 720.28C498.3 721.34 498.3 721.34 498.87 722.42C499.34 723.35 499.34 723.35 499.82 724.3C501.33 726.48 502.73 727.6 505 729C507.8 729.44 507.8 729.44 510.91 729.35C512.12 729.35 513.33 729.35 514.58 729.35C515.92 729.34 517.26 729.32 518.59 729.31C520 729.3 521.42 729.3 522.83 729.3C525.86 729.29 528.9 729.28 531.94 729.26C536.74 729.22 541.54 729.21 546.35 729.2C555.68 729.17 565.01 729.12 574.34 729.08C586.21 729.02 598.08 728.97 609.95 728.93C614.73 728.92 619.5 728.9 624.27 728.86C627.24 728.85 630.21 728.84 633.19 728.83C634.56 728.82 635.94 728.81 637.32 728.8C639.2 728.79 641.08 728.78 642.96 728.78C644.54 728.77 644.54 728.77 646.15 728.76C649.18 729.02 651.29 729.62 654 731C656.54 734.02 657.85 736.17 658.56 740.06C657.81 744.01 656.04 745.47 653 748C650.39 749.31 648.48 749.12 645.56 749.12C644.4 749.12 643.25 749.12 642.06 749.12C640.78 749.12 639.51 749.12 638.2 749.11C636.85 749.11 635.5 749.11 634.15 749.11C630.48 749.11 626.8 749.11 623.13 749.1C619.3 749.1 615.46 749.09 611.63 749.09C604.37 749.09 597.1 749.08 589.84 749.07C581.57 749.06 573.3 749.06 565.03 749.05C548.02 749.04 531.01 749.02 514 749C515.92 753.02 517.84 757.03 519.76 761.05C520.57 762.75 520.57 762.75 521.4 764.48C524.97 771.93 528.67 779.25 532.75 786.44C533.77 788.25 534.79 790.06 535.8 791.87C536.22 792.62 536.65 793.38 537.09 794.15C538 796 538 796 538 798C538.85 798 538.85 798 539.72 798.01C553.51 798.09 567.31 798.18 581.11 798.29C587.78 798.34 594.45 798.38 601.12 798.42C607.56 798.46 614 798.51 620.44 798.56C622.9 798.58 625.35 798.59 627.81 798.6C631.25 798.62 634.69 798.65 638.13 798.68C639.65 798.68 639.65 798.68 641.21 798.69C646.17 798.75 650.39 798.94 655 801C657.66 803.76 659 806.8 659 810.62C657.49 814.21 655.54 817.23 652 819C650.63 819.09 649.26 819.12 647.89 819.12C647.03 819.12 646.17 819.12 645.28 819.12C644.33 819.12 643.38 819.12 642.41 819.11C640.92 819.11 640.92 819.11 639.39 819.11C636.09 819.11 632.79 819.11 629.49 819.1C627.21 819.1 624.92 819.09 622.64 819.09C616.62 819.09 610.6 819.08 604.58 819.07C598.44 819.06 592.3 819.05 586.16 819.05C574.11 819.04 562.05 819.02 550 819C556.26 831.55 556.26 831.55 562.61 844.04C562.99 844.79 563.38 845.53 563.77 846.29C564.55 847.82 565.34 849.36 566.13 850.89C567.33 853.22 568.53 855.56 569.73 857.9C570.5 859.41 571.28 860.91 572.05 862.42C572.4 863.11 572.76 863.8 573.12 864.51C574.58 867.33 576.06 870.09 577.75 872.79C579 875 579 875 579 878C575.39 879.2 572.07 879.19 568.31 879.19C567.59 879.19 566.87 879.19 566.13 879.19C562.38 879.16 558.92 878.97 555.31 877.94C551.8 876.94 550.41 876.93 547 878C545.19 879.58 545.19 879.58 543.69 881.62C535.01 892.06 524.27 899.02 510.46 900.34C506.97 900.59 503.49 900.82 500 901C499.84 901.63 499.68 902.26 499.52 902.91C496.81 912.84 491.92 919.5 485 927C481.29 925.77 480.01 923.73 478.26 920.33C477.95 919.69 477.64 919.05 477.31 918.39C476.97 917.73 476.63 917.06 476.28 916.37C475.18 914.19 474.09 912 473 909.81C472.24 908.31 471.48 906.81 470.72 905.31C469.19 902.3 467.67 899.28 466.15 896.27C463.22 890.44 460.21 884.66 457.19 878.88C456.48 877.51 456.48 877.51 455.76 876.12C453.89 872.55 452.02 869 450 865.52C447.4 861.04 445.16 856.39 442.88 851.75C435.84 837.6 428.47 823.66 420.88 809.81C416.38 801.61 412.07 793.35 407.96 784.95C406.22 781.41 404.45 777.9 402.69 774.38C402.05 773.09 401.4 771.81 400.76 770.52C400.18 769.36 399.6 768.2 399 767C398 765 397 763 396 761C395.88 783.64 395.79 806.29 395.74 828.93C395.72 839.45 395.68 849.96 395.62 860.48C395.57 869.64 395.54 878.81 395.53 887.98C395.52 892.83 395.51 897.68 395.47 902.53C395.44 907.11 395.43 911.68 395.43 916.25C395.43 917.92 395.42 919.59 395.4 921.27C395.3 930.38 395.44 938.29 401 946C403.45 948.66 403.45 948.66 406.25 950.44C407.12 951.05 407.99 951.67 408.89 952.31C416.49 956.44 423.67 957.49 432.24 957.7C433.33 957.74 434.42 957.78 435.54 957.82C439.13 957.93 442.72 958.02 446.31 958.11C447.55 958.14 448.8 958.17 450.07 958.2C455.31 958.32 460.55 958.43 465.79 958.52C472.54 958.63 479.28 958.78 486.02 959.02C529.74 960.56 529.74 960.56 568.58 942.66C571 941 571 941 574 940C576 942 576 942 576.2 945.7C576.18 947.17 576.16 948.65 576.12 950.12C576.12 950.88 576.11 951.63 576.1 952.41C576.07 954.27 576.04 956.14 576 958C576.8 957.99 577.6 957.98 578.43 957.96C598 957.68 617.56 957.46 637.13 957.33C646.59 957.26 656.05 957.17 665.51 957.02C673.77 956.89 682.02 956.81 690.27 956.78C694.64 956.76 699 956.72 703.36 956.63C733.52 955.99 733.52 955.99 740.97 962.64C743.36 965.28 745.18 967.94 747 971C747.66 971.66 748.32 972.32 749 973C662.38 973.5 662.38 973.5 574 974C573.67 976.31 573.34 978.62 573 981C568.9 979.59 565.54 977.51 561.96 975.12C558 972.86 554.24 972.87 549.74 972.87C547.81 972.86 547.81 972.86 545.84 972.86C544.42 972.86 542.99 972.86 541.57 972.86C540.07 972.86 538.56 972.85 537.06 972.85C533.83 972.84 530.6 972.83 527.36 972.83C522.24 972.83 517.12 972.81 512 972.79C510.25 972.78 508.5 972.78 506.74 972.77C505.86 972.77 504.98 972.76 504.08 972.76C492.16 972.72 480.25 972.69 468.33 972.67C460.29 972.67 452.25 972.64 444.21 972.6C439.96 972.59 435.71 972.57 431.46 972.58C427.45 972.58 423.45 972.57 419.44 972.54C417.98 972.53 416.52 972.53 415.05 972.54C401.21 972.6 392.12 969.56 382 960C377.25 954.93 374.68 949.72 373 943C372.83 942.32 372.65 941.63 372.48 940.93C371.82 936.92 371.85 932.98 371.86 928.92C371.85 928.01 371.85 927.09 371.84 926.15C371.83 923.07 371.83 920 371.83 916.93C371.82 914.73 371.81 912.53 371.81 910.33C371.79 905.59 371.78 900.85 371.77 896.11C371.75 888.62 371.73 881.13 371.71 873.64C371.67 863.14 371.64 852.64 371.61 842.14C371.61 841.47 371.6 840.81 371.6 840.12C371.57 830.66 371.55 821.21 371.53 811.75C371.53 810.75 371.53 810.75 371.52 809.73C371.52 809.06 371.52 808.4 371.52 807.71C371.49 796.62 371.46 785.53 371.42 774.44C371.39 766.99 371.37 759.53 371.36 752.08C371.35 747.45 371.33 742.82 371.31 738.19C371.31 736.04 371.3 733.89 371.3 731.74C371.3 728.81 371.29 725.88 371.27 722.95C371.27 722.09 371.28 721.24 371.28 720.36C371.24 716.26 370.83 713.6 369 710C369 709.01 369 708.02 369 707C382.76 699.53 396.54 692.14 410.56 685.19C417.99 681.5 425.41 677.8 432.75 673.94C433.49 673.55 434.23 673.16 434.99 672.76C439.34 670.45 443.65 668.08 447.95 665.68C448.96 665.12 449.96 664.56 451 663.98C452.97 662.89 454.93 661.78 456.88 660.67C457.77 660.18 458.65 659.68 459.56 659.18C460.35 658.73 461.13 658.29 461.94 657.83C464 657 464 657 467 658Z" fill="#69D261"/>
<path d="M420.719 335.739C422.629 335.729 422.629 335.729 424.569 335.729C428.089 335.719 431.599 335.719 435.119 335.719C438.909 335.729 442.709 335.719 446.509 335.709C453.939 335.699 461.369 335.699 468.799 335.699C474.849 335.699 480.889 335.699 486.929 335.689C487.799 335.689 488.659 335.689 489.539 335.689C491.289 335.689 493.039 335.689 494.789 335.689C511.189 335.679 527.589 335.679 543.989 335.689C558.979 335.689 573.969 335.679 588.949 335.659C604.359 335.639 619.759 335.629 635.159 335.639C643.809 335.639 652.449 335.639 661.089 335.619C668.449 335.609 675.809 335.609 683.169 335.619C686.919 335.629 690.669 335.629 694.419 335.619C698.489 335.599 702.569 335.609 706.649 335.629C708.399 335.619 708.399 335.619 710.189 335.599C721.909 335.679 733.709 337.339 742.999 344.999C745.269 347.509 747.319 350.109 749.379 352.789C756.239 361.469 764.749 369.279 773.179 376.399C776.199 379.059 778.969 381.959 781.789 384.819C783.759 386.759 785.769 388.579 787.879 390.379C791.249 393.259 794.389 396.339 797.499 399.499C801.189 403.239 804.979 406.779 808.969 410.189C812.319 413.169 815.409 416.399 818.559 419.589C821.269 422.269 824.109 424.749 826.999 427.219C829.259 429.229 831.379 431.349 833.499 433.499C836.209 436.249 838.939 438.869 841.879 441.379C845.249 444.259 848.389 447.339 851.499 450.499C854.569 453.619 857.669 456.659 860.999 459.499C864.849 462.779 868.379 466.349 871.929 469.949C875.169 473.219 878.539 476.269 882.039 479.259C885.089 481.969 887.919 484.899 890.769 487.819C892.809 489.809 894.909 491.589 897.129 493.379C904.119 499.389 909.439 507.949 910.179 517.269C910.249 519.929 910.259 522.589 910.239 525.259C910.239 526.789 910.239 526.789 910.249 528.339C910.249 531.749 910.239 535.159 910.229 538.559C910.229 541.009 910.229 543.449 910.229 545.889C910.229 551.149 910.219 556.409 910.209 561.669C910.199 569.269 910.189 576.869 910.189 584.479C910.179 596.809 910.169 609.149 910.149 621.489C910.129 633.469 910.119 645.449 910.109 657.429C910.109 658.539 910.109 658.539 910.109 659.669C910.109 663.369 910.099 667.079 910.099 670.789C910.079 701.529 910.049 732.259 909.999 762.999C909.669 762.339 909.339 761.679 908.999 760.999C907.689 760.299 906.349 759.639 904.999 758.999C903.219 757.979 901.439 756.959 899.669 755.929C892.629 751.869 885.619 748.349 878.089 745.289C874.979 743.989 872.009 742.519 868.999 740.999C868.999 739.809 869.009 738.629 869.009 737.409C869.079 709.219 869.109 681.029 869.079 652.849C869.069 649.369 869.069 645.899 869.069 642.429C869.069 641.739 869.069 641.049 869.069 640.329C869.059 629.149 869.079 617.969 869.109 606.789C869.149 595.309 869.149 583.839 869.119 572.359C869.099 565.909 869.099 559.469 869.139 553.019C869.169 546.949 869.159 540.889 869.129 534.819C869.119 532.589 869.129 530.369 869.149 528.139C869.789 514.829 869.789 514.829 863.999 503.469C863.189 502.759 862.369 502.039 861.529 501.299C858.639 498.669 856.659 495.769 854.609 492.479C853.839 491.279 853.079 490.079 852.309 488.869C851.909 488.249 851.519 487.619 851.109 486.979C837.909 466.299 822.929 447.059 807.059 428.379C806.369 427.549 805.669 426.729 804.949 425.879C767.909 382.269 728.399 356.119 671.239 351.179C635.719 348.309 600.039 348.769 564.459 349.979C561.869 350.059 559.279 350.149 556.689 350.229C520.829 351.419 485.019 353.299 449.259 356.269C447.299 356.439 445.329 356.599 443.369 356.759C439.769 357.059 436.169 357.369 432.569 357.699C431.539 357.779 430.499 357.869 429.439 357.959C418.509 358.999 408.979 361.249 401.469 369.739C397.069 375.529 395.749 381.009 395.759 388.289C395.759 389.359 395.759 389.359 395.759 390.449C395.749 392.819 395.759 395.189 395.769 397.559C395.769 399.269 395.769 400.969 395.769 402.679C395.769 407.299 395.779 411.919 395.799 416.539C395.809 421.379 395.809 426.209 395.809 431.039C395.819 440.189 395.839 449.339 395.859 458.479C395.879 468.899 395.889 479.319 395.899 489.729C395.919 511.149 395.959 532.579 395.999 553.999C396.819 554.329 397.629 554.659 398.469 554.999C400.089 555.659 400.089 555.659 401.729 556.339C402.789 556.769 403.859 557.199 404.949 557.649C413.959 561.639 418.259 567.549 422.999 575.999C423.359 576.629 423.709 577.269 424.079 577.919C425.209 579.939 426.329 581.969 427.439 583.999C427.789 584.649 428.149 585.289 428.509 585.959C430.049 588.849 430.999 590.679 430.999 593.999C429.689 594.589 429.689 594.589 428.349 595.189C386.549 613.889 386.549 613.889 346.849 636.629C345.949 637.209 345.949 637.209 345.029 637.799C343.519 638.779 342.019 639.789 340.519 640.809C337.409 642.279 336.229 642.069 332.999 640.999C331.549 639.239 331.549 639.239 330.399 636.959C329.969 636.129 329.539 635.299 329.099 634.449C328.679 633.579 328.249 632.709 327.809 631.809C327.379 630.959 326.939 630.109 326.489 629.229C321.399 619.199 318.889 609.939 321.879 598.699C328.679 581.059 344.209 575.439 360.009 567.229C361.739 566.329 361.739 566.329 363.509 565.409C366.339 563.939 369.169 562.469 371.999 560.999C371.999 560.039 371.999 559.069 371.989 558.079C371.929 534.619 371.879 511.159 371.849 487.689C371.829 476.349 371.809 464.999 371.769 453.659C371.739 443.759 371.729 433.869 371.719 423.979C371.709 418.739 371.709 413.509 371.679 408.269C371.659 403.339 371.659 398.399 371.659 393.469C371.659 391.659 371.649 389.859 371.639 388.059C371.549 372.469 372.869 359.359 383.629 347.159C393.839 337.529 407.329 335.699 420.719 335.739Z" fill="#28785F"/>
<path d="M868 509C868.33 509 868.66 509 869 509C869 585.56 869 662.12 869 741C860.13 739.89 860.13 739.89 856.55 739.25C820.05 732.99 784.43 740.49 754 762C750.58 764.57 747.28 767.25 744 770C743.31 770.55 742.62 771.11 741.91 771.68C718.11 791.39 703.05 825.02 699.75 855.3C696.33 892.61 708.43 926.56 731 956C731.66 956.66 732.32 957.32 733 958C681.19 958 629.38 958 576 958C576 957.67 576 957.34 576 957C611.64 957 647.28 957 684 957C679.05 946.61 679.05 946.61 674 936C672.41 931.97 670.93 928.1 669.62 924C669.3 923.01 668.98 922.03 668.65 921.01C665.56 911.17 663.5 901.2 662 891C661.85 889.98 661.7 888.97 661.54 887.92C661.24 885.27 661.08 882.67 661 880C660.98 879.35 660.96 878.7 660.94 878.03C660.23 851.69 663.76 825.06 675 801C675.29 800.37 675.58 799.74 675.88 799.09C682.79 784.22 691.11 770.3 702 758C702.43 757.51 702.86 757.02 703.3 756.52C732.13 723.77 772.49 703.02 816 699C821.05 698.72 826.07 698.67 831.12 698.69C832.36 698.67 833.59 698.66 834.87 698.64C846.35 698.63 856.3 700.33 868 702C868 638.31 868 574.62 868 509Z" fill="#DAD4C9"/>
<path d="M720 360C724.58 363.83 728.94 367.8 733.16 372.02C734.02 372.89 734.02 372.89 734.91 373.77C736.82 375.68 738.73 377.59 740.65 379.5C742.03 380.88 743.41 382.26 744.79 383.63C748.52 387.36 752.25 391.08 755.98 394.81C758.31 397.14 760.64 399.47 762.97 401.8C771.1 409.91 779.22 418.03 787.34 426.16C794.92 433.74 802.5 441.31 810.09 448.88C816.6 455.38 823.11 461.88 829.62 468.39C833.51 472.28 837.39 476.16 841.29 480.04C844.94 483.69 848.59 487.34 852.23 490.99C853.57 492.33 854.92 493.67 856.26 495.01C858.09 496.83 859.91 498.66 861.73 500.48C862.27 501.02 862.81 501.55 863.37 502.11C867 505.77 867 505.77 867 508C852.07 508.05 837.13 508.08 822.2 508.1C815.26 508.11 808.33 508.13 801.39 508.15C794.69 508.17 787.99 508.18 781.3 508.19C778.75 508.19 776.2 508.2 773.65 508.21C770.06 508.23 766.48 508.23 762.9 508.23C761.85 508.23 760.81 508.24 759.73 508.25C748.67 508.22 738.86 507.04 730 500C720.89 490.52 719.84 480.01 719.89 467.4C719.89 466.23 719.89 465.07 719.89 463.88C719.89 460.04 719.89 456.21 719.9 452.38C719.9 449.72 719.91 447.06 719.91 444.4C719.91 438.13 719.92 431.85 719.93 425.57C719.94 418.42 719.94 411.27 719.95 404.11C719.96 389.41 719.98 374.7 720 360Z" fill="#DAD4C9"/>
<path d="M372 717C376.1 719.74 377.39 723.41 379.39 727.76C381.35 731.9 383.43 735.73 386.03 739.51C397.71 757.32 396.59 775.46 396.25 795.95C396.19 800.84 396.19 805.74 396.19 810.63C396.18 819.88 396.12 829.12 396.03 838.37C395.86 854.95 395.79 871.53 395.75 888.11C395.73 893.91 395.69 899.72 395.62 905.52C395.58 909.13 395.56 912.74 395.55 916.35C395.54 918.02 395.52 919.68 395.49 921.34C395.33 930.45 395.44 938.29 401 946C403.45 948.66 403.45 948.66 406.25 950.44C407.12 951.05 407.99 951.67 408.89 952.31C416.49 956.44 423.67 957.49 432.24 957.7C433.33 957.74 434.42 957.78 435.54 957.82C439.13 957.93 442.72 958.02 446.31 958.11C447.55 958.14 448.8 958.17 450.07 958.2C455.31 958.32 460.55 958.43 465.79 958.52C472.54 958.63 479.28 958.78 486.02 959.02C529.74 960.56 529.74 960.56 568.58 942.66C571 941 571 941 574 940C576 942 576 942 576.2 945.7C576.18 947.17 576.16 948.65 576.12 950.12C576.12 950.88 576.11 951.63 576.1 952.41C576.07 954.27 576.04 956.14 576 958C577.2 957.98 577.2 957.98 578.43 957.96C598 957.68 617.56 957.46 637.13 957.33C646.59 957.26 656.05 957.17 665.51 957.02C673.77 956.89 682.02 956.81 690.27 956.78C694.64 956.76 699 956.72 703.36 956.63C733.52 955.99 733.52 955.99 740.97 962.64C743.36 965.28 745.18 967.94 747 971C747.66 971.66 748.32 972.32 749 973C662.38 973.5 662.38 973.5 574 974C573.67 976.31 573.34 978.62 573 981C568.9 979.59 565.54 977.51 561.96 975.12C558 972.86 554.24 972.87 549.74 972.87C547.81 972.86 547.81 972.86 545.84 972.86C544.42 972.86 542.99 972.86 541.57 972.86C540.07 972.86 538.56 972.85 537.06 972.85C533.83 972.84 530.6 972.83 527.36 972.83C522.24 972.83 517.12 972.81 512 972.79C510.25 972.78 508.5 972.78 506.74 972.77C505.86 972.77 504.98 972.76 504.08 972.76C492.16 972.72 480.25 972.69 468.33 972.67C460.29 972.67 452.25 972.64 444.21 972.6C439.96 972.59 435.71 972.57 431.46 972.58C427.45 972.58 423.45 972.57 419.44 972.54C417.98 972.53 416.52 972.53 415.05 972.54C401.21 972.6 392.12 969.56 382 960C377.25 954.93 374.68 949.72 373 943C372.83 942.32 372.65 941.63 372.47 940.93C371.83 936.94 371.87 933.04 371.88 929.01C371.88 928.1 371.88 927.2 371.88 926.26C371.88 923.22 371.88 920.18 371.89 917.15C371.89 914.97 371.89 912.79 371.89 910.61C371.89 904.7 371.89 898.78 371.9 892.87C371.9 886.69 371.91 880.51 371.91 874.32C371.91 862.62 371.92 850.92 371.93 839.21C371.94 825.89 371.94 812.56 371.95 799.23C371.96 771.82 371.98 744.41 372 717Z" fill="#28795F"/>
<path d="M396 760C398.17 763.25 399.85 766.63 401.56 770.12C404.45 775.97 407.43 781.75 410.5 787.5C413.39 792.92 416.21 798.37 418.94 803.88C422.1 810.26 425.38 816.57 428.72 822.86C431.5 828.13 434.25 833.42 436.98 838.71C437.33 839.39 437.68 840.07 438.05 840.78C439.8 844.17 441.54 847.57 443.29 850.97C446.07 856.37 448.85 861.77 451.79 867.08C457.33 877.15 462.42 887.46 467.63 897.7C469.09 900.57 470.55 903.43 472.01 906.3C472.45 907.17 472.89 908.04 473.35 908.93C475.25 912.67 477.19 916.36 479.31 919.98C481 923 481 923 481 925C481.99 925.33 482.98 925.66 484 926C484 926.99 484 927.98 484 929C484.73 929.28 485.47 929.55 486.23 929.84C488.81 930.92 491.02 932.13 493.38 933.62C494.62 934.4 494.62 934.4 495.89 935.19C496.77 935.75 497.66 936.3 498.56 936.88C506.96 942.13 515.41 947.28 523.95 952.3C524.75 952.78 525.54 953.25 526.36 953.73C527.07 954.15 527.77 954.56 528.5 954.99C528.99 955.32 529.49 955.66 530 956C530 956.33 530 956.66 530 957C515.4 957.09 500.81 957.16 486.21 957.21C479.44 957.23 472.66 957.26 465.88 957.3C459.34 957.35 452.8 957.37 446.26 957.38C443.76 957.39 441.27 957.4 438.77 957.42C435.28 957.45 431.78 957.46 428.28 957.45C426.74 957.48 426.74 957.48 425.17 957.5C418.8 957.46 414.39 956.4 409 953C408.15 952.48 407.3 951.96 406.43 951.43C405.73 950.92 405.03 950.4 404.31 949.88C403.61 949.38 402.9 948.88 402.18 948.37C394.16 939.65 394.3 929.97 394.42 918.82C394.42 917.09 394.41 915.37 394.41 913.64C394.4 908.99 394.43 904.34 394.46 899.68C394.49 894.81 394.49 889.93 394.49 885.06C394.5 876.88 394.53 868.71 394.57 860.53C394.62 848.99 394.65 837.44 394.66 825.9C394.68 817.91 394.7 809.92 394.72 801.93C394.72 799.99 394.73 798.05 394.73 796.11C394.75 790.59 394.77 785.07 394.8 779.55C394.8 777.88 394.81 776.2 394.81 774.53C394.82 772.25 394.83 769.97 394.85 767.7C394.85 766.42 394.86 765.14 394.86 763.83C395 761 395 761 396 760Z" fill="#EAEBED"/>
<path d="M878.171 806.999C880.131 808.069 881.541 809.149 883.131 810.709C883.711 811.279 884.301 811.849 884.901 812.429C885.821 813.359 885.821 813.359 886.771 814.299C887.411 814.929 888.051 815.569 888.711 816.219C890.061 817.559 891.401 818.899 892.751 820.249C894.811 822.309 896.891 824.349 898.971 826.389C900.281 827.689 901.591 828.999 902.891 830.299C903.521 830.909 904.151 831.519 904.791 832.149C906.511 833.899 906.511 833.899 909.001 836.999C908.771 840.619 906.971 842.409 904.491 844.909C903.741 845.669 902.981 846.429 902.211 847.219C901.381 848.049 900.541 848.879 899.691 849.729C898.821 850.609 897.941 851.489 897.051 852.399C894.661 854.809 892.261 857.209 889.861 859.609C887.851 861.619 885.851 863.619 883.851 865.629C879.141 870.359 874.421 875.089 869.691 879.809C864.811 884.679 859.941 889.569 855.091 894.469C850.911 898.669 846.741 902.859 842.551 907.039C840.051 909.539 837.551 912.049 835.061 914.559C832.291 917.359 829.491 920.139 826.701 922.919C825.871 923.759 825.051 924.589 824.201 925.459C823.051 926.579 823.051 926.579 821.891 927.729C821.231 928.389 820.571 929.049 819.891 929.729C818.001 930.999 818.001 930.999 815.931 930.859C812.681 929.419 810.401 926.839 807.931 924.349C807.031 923.469 807.031 923.469 806.121 922.569C804.151 920.619 802.191 918.659 800.231 916.699C798.871 915.339 797.501 913.989 796.141 912.629C793.281 909.789 790.431 906.939 787.581 904.079C783.921 900.419 780.251 896.779 776.571 893.139C773.751 890.339 770.941 887.539 768.131 884.719C766.781 883.379 765.431 882.029 764.071 880.689C762.171 878.819 760.301 876.929 758.421 875.039C757.851 874.479 757.291 873.929 756.701 873.359C753.001 869.579 753.001 869.579 753.001 866.809C754.051 864.909 755.091 863.509 756.621 861.959C757.171 861.399 757.711 860.829 758.281 860.249C759.171 859.359 759.171 859.359 760.081 858.449C760.691 857.829 761.301 857.209 761.931 856.579C763.221 855.269 764.521 853.979 765.821 852.679C767.811 850.689 769.781 848.679 771.741 846.669C773.001 845.409 774.261 844.149 775.521 842.889C776.111 842.279 776.701 841.679 777.301 841.049C778.991 839.389 778.991 839.389 782.001 836.999C786.521 837.439 788.921 840.589 791.901 843.719C792.461 844.289 793.021 844.859 793.601 845.449C795.991 847.889 798.361 850.339 800.731 852.799C802.471 854.589 804.221 856.369 805.961 858.149C806.761 858.989 806.761 858.989 807.571 859.839C810.561 862.879 813.021 864.559 817.001 865.999C818.091 864.889 818.091 864.889 819.211 863.749C826.081 856.779 832.971 849.819 839.871 842.869C843.421 839.299 846.961 835.719 850.491 832.129C853.901 828.669 857.311 825.219 860.741 821.779C862.051 820.469 863.351 819.149 864.651 817.819C866.461 815.969 868.291 814.139 870.131 812.299C870.671 811.749 871.201 811.189 871.761 810.619C875.431 806.999 875.431 806.999 878.171 806.999Z" fill="#EAEBED"/>
<path d="M476.621 588.746C477.801 588.746 478.981 588.736 480.191 588.736C483.451 588.726 486.711 588.736 489.971 588.736C493.491 588.746 497.011 588.736 500.531 588.726C507.421 588.726 514.311 588.726 521.201 588.726C526.801 588.736 532.401 588.736 538.001 588.736C538.801 588.736 539.601 588.736 540.421 588.736C542.041 588.726 543.661 588.726 545.271 588.726C560.461 588.726 575.641 588.726 590.821 588.746C603.851 588.746 616.881 588.746 629.901 588.736C645.031 588.726 660.161 588.726 675.291 588.726C676.901 588.736 678.521 588.736 680.131 588.736C681.321 588.736 681.321 588.736 682.531 588.736C688.131 588.736 693.721 588.736 699.321 588.726C706.131 588.726 712.951 588.726 719.761 588.736C723.241 588.736 726.721 588.746 730.201 588.736C733.971 588.726 737.741 588.736 741.501 588.746C742.611 588.746 743.711 588.736 744.841 588.736C745.851 588.736 746.861 588.746 747.901 588.746C748.771 588.746 749.641 588.746 750.541 588.746C754.971 589.206 757.421 590.346 760.371 593.686C762.401 597.826 762.431 599.636 761.001 603.996C758.311 607.076 756.581 608.706 752.541 609.456C749.451 609.646 746.391 609.666 743.281 609.636C742.101 609.646 740.911 609.646 739.681 609.656C736.391 609.676 733.111 609.666 729.821 609.656C726.271 609.646 722.721 609.656 719.171 609.676C712.211 609.696 705.261 609.686 698.311 609.676C692.661 609.666 687.011 609.666 681.361 609.666C680.551 609.666 679.751 609.666 678.921 609.676C677.281 609.676 675.651 609.676 674.011 609.676C658.691 609.686 643.361 609.676 628.041 609.646C614.891 609.626 601.751 609.626 588.601 609.656C573.331 609.676 558.061 609.686 542.801 609.676C541.171 609.676 539.541 609.666 537.911 609.666C537.111 609.666 536.311 609.666 535.481 609.666C529.841 609.666 524.201 609.666 518.551 609.686C511.671 609.696 504.791 609.696 497.911 609.666C494.411 609.656 490.901 609.646 487.391 609.666C483.581 609.676 479.771 609.656 475.971 609.636C474.861 609.646 473.761 609.656 472.621 609.666C466.581 609.596 462.471 608.796 457.391 605.466C455.661 603.646 455.471 602.476 455.311 599.996C455.711 596.376 456.541 593.786 459.001 590.996C464.681 588.346 470.491 588.726 476.621 588.746Z" fill="#444E53"/>
<path d="M467 659C503.35 658.95 539.7 658.92 576.05 658.9C580.34 658.9 584.63 658.89 588.92 658.89C590.2 658.89 590.2 658.89 591.51 658.89C605.34 658.88 619.18 658.86 633.01 658.85C647.2 658.83 661.39 658.82 675.59 658.81C684.35 658.81 693.11 658.8 701.87 658.78C707.87 658.77 713.87 658.77 719.88 658.77C723.34 658.77 726.81 658.77 730.27 658.76C734.03 658.75 737.79 658.75 741.54 658.76C742.64 658.75 743.74 658.75 744.87 658.74C745.88 658.75 746.88 658.75 747.92 658.75C749.22 658.75 749.22 658.75 750.55 658.75C754.98 659.2 757.42 660.35 760.38 663.69C762.38 667.77 762.28 669.67 761 674C759.11 676.32 757.66 677.67 755 679C753.48 679.1 751.96 679.13 750.44 679.14C748.99 679.14 748.99 679.14 747.52 679.15C746.45 679.15 745.38 679.15 744.28 679.15C743.15 679.16 742.02 679.16 740.85 679.17C737.04 679.18 733.23 679.19 729.42 679.19C726.7 679.2 723.98 679.21 721.26 679.22C713.08 679.24 704.89 679.26 696.71 679.27C694.4 679.27 692.09 679.28 689.77 679.28C675.43 679.31 661.09 679.33 646.75 679.34C643.42 679.34 640.1 679.35 636.78 679.35C635.95 679.35 635.12 679.35 634.27 679.35C620.89 679.37 607.5 679.4 594.12 679.44C580.38 679.48 566.65 679.51 552.91 679.51C545.2 679.51 537.48 679.53 529.77 679.56C523.2 679.59 516.63 679.6 510.06 679.59C506.71 679.58 503.35 679.59 500 679.61C496.37 679.63 492.74 679.62 489.1 679.61C487.51 679.63 487.51 679.63 485.89 679.65C478.76 679.57 478.76 679.57 474.92 676.67C472.75 673.66 471.18 670.7 469.69 667.31C469.18 666.17 468.66 665.04 468.14 663.86C467 661 467 661 467 659Z" fill="#444E53"/>
<path d="M395 554C408.76 558.74 415.84 563.25 423 576C423.36 576.63 423.71 577.27 424.08 577.92C425.21 579.94 426.33 581.97 427.44 584C427.79 584.65 428.15 585.29 428.51 585.96C430.04 588.84 431 590.68 431 594C430.13 594.39 429.25 594.78 428.35 595.19C386.55 613.89 386.55 613.89 346.85 636.63C345.95 637.21 345.95 637.21 345.03 637.8C343.52 638.78 342.02 639.79 340.52 640.8C337.41 642.28 336.23 642.07 333 641C331.55 639.24 331.55 639.24 330.39 636.96C329.97 636.13 329.54 635.3 329.1 634.45C328.46 633.15 328.46 633.15 327.81 631.81C327.37 630.96 326.94 630.11 326.49 629.23C321.4 619.2 318.89 609.94 321.88 598.7C326.87 585.76 335.1 580.17 347 574C348.01 573.48 349.02 572.95 350.05 572.41C359.43 567.54 359.43 567.54 363.64 565.39C364.69 564.85 365.75 564.31 366.83 563.76C368.25 563.03 368.25 563.03 369.7 562.29C372.1 561.08 372.1 561.08 374 559C374.66 559 375.32 559 376 559C377.55 558.35 379.09 557.68 380.62 557C385.4 555.02 388.88 554.72 394 555C394.33 554.67 394.66 554.34 395 554Z" fill="#F15271"/>
<path d="M550.203 875.551C552.313 875.811 552.313 875.811 556.003 877.001C558.843 877.821 561.303 878.111 564.253 878.061C565.043 878.051 565.843 878.051 566.653 878.041C567.873 878.021 567.873 878.021 569.123 878.001C577.733 877.861 577.733 877.861 580.003 879.001C580.303 889.831 579.493 900.601 578.773 911.391C578.563 914.581 578.353 917.781 578.153 920.971C578.023 923.001 577.883 925.031 577.753 927.071C577.693 928.021 577.633 928.971 577.573 929.951C577.513 930.841 577.453 931.721 577.393 932.631C577.333 933.401 577.283 934.181 577.233 934.971C577.003 937.001 577.003 937.001 576.003 940.001C574.423 940.741 572.823 941.461 571.203 942.101C566.723 943.931 562.443 946.211 558.123 948.371C557.183 948.841 556.243 949.311 555.273 949.801C554.333 950.261 553.403 950.731 552.443 951.211C551.613 951.631 550.783 952.041 549.933 952.471C547.133 953.861 547.133 953.861 545.163 955.231C538.803 959.271 533.653 959.671 526.233 959.481C524.523 959.461 524.523 959.461 522.773 959.451C519.023 959.411 515.273 959.341 511.523 959.271C508.913 959.241 506.303 959.211 503.693 959.181C497.543 959.111 491.393 959.021 485.243 958.911C478.233 958.801 471.223 958.711 464.213 958.621C449.813 958.451 435.403 958.241 421.003 958.001C421.003 957.671 421.003 957.341 421.003 957.001C456.313 956.671 491.623 956.341 528.003 956.001C514.143 947.581 514.143 947.581 500.003 939.001C489.033 932.181 489.033 932.181 484.003 929.001C485.463 925.691 487.363 923.331 489.753 920.621C494.063 915.381 496.363 910.071 498.773 903.811C500.003 901.001 500.003 901.001 502.003 900.001C503.753 899.811 505.503 899.621 507.253 899.461C520.663 898.151 532.383 893.881 541.273 883.291C542.033 882.371 542.783 881.451 543.563 880.501C547.343 876.131 547.343 876.131 550.203 875.551Z" fill="#D9D3C8"/>
<path d="M505 729C523.69 728.95 542.38 728.92 561.07 728.9C569.74 728.89 578.42 728.87 587.1 728.85C594.66 728.83 602.23 728.82 609.79 728.81C613.79 728.81 617.8 728.8 621.8 728.79C625.57 728.77 629.34 728.77 633.11 728.77C634.5 728.77 635.88 728.77 637.26 728.76C639.15 728.75 641.04 728.76 642.93 728.76C644.52 728.76 644.52 728.76 646.14 728.75C649.17 729.01 651.29 729.62 654 731C656.54 734.02 657.85 736.17 658.56 740.06C657.81 744.01 656.04 745.47 653 748C650.4 749.3 648.5 749.13 645.59 749.15C644.44 749.15 643.29 749.16 642.1 749.17C640.2 749.17 640.2 749.17 638.26 749.18C636.92 749.18 635.57 749.19 634.23 749.2C630.57 749.21 626.92 749.22 623.26 749.23C620.98 749.24 618.7 749.24 616.42 749.25C609.28 749.27 602.14 749.28 595 749.29C586.75 749.3 578.51 749.33 570.26 749.37C563.89 749.4 557.52 749.41 551.15 749.42C547.35 749.42 543.54 749.43 539.73 749.45C536.15 749.48 532.57 749.48 528.99 749.47C527.05 749.47 525.11 749.49 523.17 749.51C522.01 749.5 520.86 749.49 519.67 749.49C518.16 749.49 518.16 749.49 516.63 749.49C513.26 748.86 512.14 747.62 510 745C508.26 742.12 508.26 742.12 506.69 739C506.16 737.97 505.62 736.94 505.07 735.88C503.92 732.79 504.07 732 505 729Z" fill="#444E53"/>
<path d="M574 954C574.66 955.32 575.32 956.64 576 958C577.2 957.98 577.2 957.98 578.43 957.96C598 957.68 617.56 957.46 637.13 957.33C646.59 957.26 656.05 957.17 665.51 957.02C673.77 956.89 682.02 956.81 690.27 956.78C694.64 956.76 699 956.72 703.36 956.63C733.52 955.99 733.52 955.99 740.97 962.64C743.36 965.28 745.18 967.94 747 971C747.99 971.99 747.99 971.99 749 973C691.25 973 633.5 973 574 973C574 966.73 574 960.46 574 954Z" fill="#28795F"/>
<path d="M540 799C554.11 798.95 568.22 798.92 582.32 798.9C588.88 798.89 595.43 798.87 601.98 798.85C608.3 798.83 614.62 798.82 620.94 798.81C623.36 798.81 625.77 798.8 628.18 798.79C631.56 798.77 634.93 798.77 638.31 798.77C639.31 798.77 640.31 798.76 641.34 798.75C646.27 798.77 650.41 798.95 655 801C657.66 803.76 659 806.8 659 810.62C657.49 814.21 655.54 817.23 652 819C650.64 819.1 649.28 819.14 647.91 819.15C647.06 819.16 646.2 819.17 645.32 819.18C644.38 819.18 643.44 819.19 642.47 819.19C641.48 819.2 640.5 819.21 639.48 819.22C636.2 819.24 632.91 819.26 629.63 819.27C628.51 819.28 627.4 819.28 626.24 819.29C620.33 819.32 614.41 819.34 608.49 819.35C602.37 819.37 596.24 819.41 590.12 819.46C585.42 819.5 580.72 819.51 576.02 819.51C573.77 819.52 571.51 819.54 569.25 819.56C566.1 819.59 562.94 819.59 559.79 819.58C558.85 819.6 557.91 819.62 556.95 819.63C550.61 819.57 550.61 819.57 547.49 816.65C547 815.78 546.51 814.9 546 814C545.44 813.01 544.88 812.01 544.3 810.99C543.79 809.96 543.28 808.93 542.75 807.88C542.23 806.84 541.71 805.81 541.17 804.74C540 802 540 802 540 799Z" fill="#444E53"/>
<path d="M440 670C444.23 674.11 446.61 676.76 447.33 682.7C446.88 687.18 445 689.78 442.47 693.42C442 694.12 441.53 694.81 441.05 695.53C439.54 697.76 438.02 699.97 436.5 702.19C435.51 703.66 434.51 705.13 433.52 706.6C431.15 710.11 428.74 713.61 426.32 717.09C425.09 718.88 423.88 720.67 422.67 722.47C421.99 723.46 421.3 724.46 420.59 725.49C420.01 726.35 419.43 727.2 418.83 728.09C417 730 417 730 414.53 731.03C412 731 412 731 409.93 729.51C407.59 726.46 405.82 723.25 404.11 719.83C403.76 719.15 403.41 718.46 403.05 717.76C401.94 715.59 400.85 713.42 399.75 711.25C399 709.77 398.25 708.3 397.49 706.82C395.65 703.22 393.82 699.61 392 696C394.54 693.07 397.36 691.65 400.82 689.96C401.99 689.38 403.16 688.81 404.36 688.21C404.98 687.91 405.59 687.61 406.23 687.3C409.4 685.75 412.57 684.18 415.74 682.61C416.37 682.3 416.99 681.99 417.64 681.67C425.17 677.94 432.6 674 440 670Z" fill="#5DB28B"/>
<path d="M541.703 445.594C542.543 446.224 543.383 446.854 544.253 447.504C550.893 452.414 555.703 452.744 564.003 452.004C567.463 450.414 567.463 450.414 570.003 448.004C574.023 445.064 576.943 443.224 582.003 443.004C584.893 443.824 585.863 444.824 587.753 447.184C589.413 450.924 589.693 452.944 589.003 457.004C584.273 465.674 573.983 470.004 565.003 473.004C552.263 474.454 541.703 471.464 531.253 464.044C526.513 460.014 526.513 460.014 525.003 457.004C524.623 452.054 524.773 448.894 528.003 445.004C532.783 442.154 536.993 442.814 541.703 445.594Z" fill="#454C53"/>
<path d="M458 642C460.6 645.32 461 646.69 461 651C453.38 654.96 445.63 658.57 437.81 662.12C420.72 669.91 403.81 678.06 387 686.44C386.03 686.92 385.05 687.41 384.05 687.9C378.92 690.48 373.94 693.15 369.07 696.2C366.32 697.26 364.77 696.94 362 696C360.06 693.19 360.06 693.19 359 690C359.86 686.76 361.06 685.96 363.91 684.14C365.14 683.5 366.38 682.87 367.62 682.25C368.29 681.91 368.96 681.56 369.65 681.21C371.76 680.13 373.88 679.06 376 678C377.29 677.34 378.59 676.68 379.88 676.02C387.84 671.98 395.88 668.14 403.95 664.35C408.86 662.03 413.72 659.65 418.56 657.19C425.89 653.5 433.27 649.94 440.69 646.44C442.39 645.61 442.39 645.61 444.13 644.77C445.74 644.02 445.74 644.02 447.39 643.25C448.35 642.79 449.31 642.33 450.3 641.86C453.38 640.88 454.97 640.95 458 642Z" fill="#DAD4C9"/>
<path d="M448 623C450.6 626.32 451 627.69 451 632C443.81 635.76 436.44 639.09 429.01 642.35C421.63 645.62 414.44 649.24 407.23 652.88C403.34 654.84 399.44 656.78 395.55 658.73C393.92 659.54 392.3 660.35 390.67 661.16C372.84 670.08 372.84 670.08 355 679C351.45 675.74 350.44 673.85 350 669C356.92 664.49 364.15 660.7 371.5 656.94C372.79 656.27 374.09 655.61 375.38 654.94C379.25 652.95 383.12 650.98 387 649C388.1 648.44 389.2 647.87 390.34 647.29C401.95 641.38 413.62 635.69 425.52 630.38C426.36 630.01 427.19 629.64 428.05 629.25C428.87 628.89 429.68 628.53 430.52 628.16C433.99 626.54 437.34 624.7 440.68 622.84C443.56 621.8 445.12 622.03 448 623Z" fill="#DAD4C9"/>
<path d="M438 604C439.94 606.81 439.94 606.81 441 610C440.14 613.13 439.09 613.95 436.29 615.66C435.15 616.19 434.01 616.73 432.83 617.29C432.21 617.58 431.59 617.88 430.95 618.19C428.91 619.16 426.86 620.11 424.81 621.06C423.39 621.74 421.97 622.41 420.54 623.09C417.01 624.77 413.47 626.44 409.92 628.1C405.4 630.22 400.89 632.36 396.38 634.5C395.48 634.92 394.59 635.35 393.67 635.78C383.16 640.81 372.84 646.23 362.51 651.62C361.41 652.19 360.3 652.76 359.16 653.35C357.11 654.42 355.07 655.5 353.03 656.59C352.14 657.06 351.25 657.53 350.33 658.01C349.56 658.42 348.79 658.83 348 659.25C346 660 346 660 343 659C341.11 655.79 340 653.75 340 650C359.4 638.73 379.44 628.45 399.78 618.98C404.02 617.01 408.2 614.92 412.38 612.81C414.3 611.85 416.22 610.89 418.14 609.93C419.39 609.31 420.63 608.68 421.87 608.06C423.64 607.17 425.41 606.3 427.19 605.44C428.19 604.94 429.2 604.44 430.23 603.93C433.37 602.88 434.91 602.87 438 604Z" fill="#DAD4C9"/>
<path d="M574.217 940.911C574.807 941.271 575.397 941.631 575.997 942.001C575.737 946.431 575.467 950.861 575.197 955.291C575.107 956.791 575.017 958.291 574.927 959.801C574.797 961.971 574.667 964.141 574.537 966.321C574.457 967.621 574.377 968.921 574.297 970.271C574.007 973.891 573.557 977.411 572.997 981.001C569.017 979.631 565.737 977.641 562.257 975.321C559.877 973.931 557.417 972.921 554.877 971.861C551.627 970.371 548.677 968.441 545.687 966.501C545.067 966.111 544.447 965.721 543.807 965.321C540.827 963.391 538.997 961.991 536.997 959.001C542.137 956.121 547.287 953.261 552.447 950.421C554.917 949.041 557.377 947.651 559.837 946.261C561.347 945.421 562.867 944.591 564.377 943.751C565.077 943.341 565.787 942.941 566.517 942.521C571.507 939.791 571.507 939.791 574.217 940.911Z" fill="#454C53"/>
<path d="M654 429C658.9 434.26 659.77 439.68 659.56 446.62C659.57 447.44 659.58 448.26 659.6 449.11C659.53 454.52 658.61 457.74 655 462C652 464 652 464 648.62 463.81C645.09 463.02 642.86 462.19 640 460C638.53 455.59 638.78 451.3 638.75 446.69C638.73 445.75 638.71 444.81 638.69 443.85C638.66 438.48 638.91 434.6 642 430C646.04 427.42 649.5 427.56 654 429Z" fill="#444D53"/>
<path d="M469.035 427.992C472.395 429.712 473.775 432.582 474.995 436.002C475.525 439.562 475.515 443.032 475.435 446.622C475.445 447.552 475.455 448.482 475.455 449.442C475.415 454.412 475.275 457.992 471.995 462.002C469.345 464.082 467.985 464.002 464.565 463.872C460.665 462.912 458.785 461.862 455.995 459.002C454.685 454.982 454.775 450.882 454.745 446.692C454.715 445.582 454.715 445.582 454.685 444.462C454.655 439.232 455.555 435.652 457.995 431.002C461.525 427.772 464.495 427.722 469.035 427.992Z" fill="#454D53"/>
</svg>
